<svg width="699" height="702" viewBox="0 0 699 702" fill="none" xmlns="http://www.w3.org/2000/svg">
<rect width="699" height="702" rx="30" fill="#F2F2F2" fill-opacity="0.93"/>
<path d="M291.736 106.162C289.063 96.1851 278.78 90.2015 269.015 93.5661C213.304 112.762 165.321 149.929 132.793 199.482C96.8342 254.263 82.2759 320.354 91.89 385.173C101.504 449.992 134.619 509.012 184.93 550.997C235.242 592.982 299.236 614.999 364.729 612.857C430.222 610.715 492.641 584.563 540.101 539.38C587.561 494.197 616.749 433.139 622.107 367.831C627.464 302.522 608.618 237.523 569.157 185.209C533.461 137.888 483.151 103.935 426.304 88.4214C416.34 85.7021 406.471 92.3449 404.455 102.475C402.44 112.605 409.048 122.376 418.98 125.209C466.827 138.856 509.13 167.743 539.297 207.734C573.23 252.719 589.436 308.612 584.829 364.772C580.222 420.932 555.123 473.437 514.311 512.29C473.5 551.144 419.825 573.632 363.506 575.474C307.188 577.316 252.158 558.383 208.895 522.28C165.631 486.177 137.155 435.424 128.888 379.685C120.621 323.946 133.14 267.114 164.061 220.007C191.55 178.131 231.875 146.541 278.728 129.796C288.454 126.32 294.409 116.138 291.736 106.162Z" fill="#DFDFDF"/>
<g filter="url(#filter0_bdi_1_2087)">
<rect x="231" y="235.293" width="234.007" height="234.007" rx="117.003" transform="rotate(-0.561514 231 235.293)" fill="url(#paint0_linear_1_2087)" fill-opacity="0.93" shape-rendering="crispEdges"/>
</g>
<g filter="url(#filter1_bdi_1_2087)">
<rect x="249.977" y="253.902" width="196.42" height="196.42" rx="98.2101" transform="rotate(-0.561514 249.977 253.902)" fill="url(#paint1_linear_1_2087)" fill-opacity="0.93" shape-rendering="crispEdges"/>
</g>
<path d="M286.988 345.2C286.988 342.027 287.691 339.284 289.096 336.972C290.547 334.66 292.428 332.892 294.74 331.668C297.052 330.399 299.568 329.764 302.288 329.764C304.555 329.764 306.572 330.059 308.34 330.648C310.108 331.237 311.695 332.031 313.1 333.028C314.551 334.025 315.797 335.113 316.84 336.292V325.344C314.891 323.803 312.76 322.601 310.448 321.74C308.181 320.879 305.303 320.448 301.812 320.448C298.185 320.448 294.808 321.037 291.68 322.216C288.597 323.395 285.9 325.095 283.588 327.316C281.321 329.537 279.553 332.167 278.284 335.204C277.06 338.196 276.448 341.528 276.448 345.2C276.448 348.872 277.06 352.227 278.284 355.264C279.553 358.256 281.321 360.863 283.588 363.084C285.9 365.305 288.597 367.005 291.68 368.184C294.808 369.363 298.185 369.952 301.812 369.952C305.303 369.952 308.181 369.521 310.448 368.66C312.76 367.799 314.891 366.597 316.84 365.056V354.108C315.797 355.287 314.551 356.375 313.1 357.372C311.695 358.369 310.108 359.163 308.34 359.752C306.572 360.341 304.555 360.636 302.288 360.636C299.568 360.636 297.052 360.024 294.74 358.8C292.428 357.531 290.547 355.74 289.096 353.428C287.691 351.071 286.988 348.328 286.988 345.2ZM337.328 346.832L351.608 369H363.1L347.596 346.832H337.328ZM326.516 321.4V369H336.24V321.4H326.516ZM332.432 329.696H341.884C343.606 329.696 345.08 329.991 346.304 330.58C347.573 331.124 348.548 331.94 349.228 333.028C349.908 334.071 350.248 335.34 350.248 336.836C350.248 338.332 349.908 339.624 349.228 340.712C348.548 341.755 347.573 342.571 346.304 343.16C345.08 343.704 343.606 343.976 341.884 343.976H332.432V351.728H342.496C346.258 351.728 349.454 351.093 352.084 349.824C354.713 348.555 356.73 346.787 358.136 344.52C359.541 342.208 360.244 339.556 360.244 336.564C360.244 333.527 359.541 330.875 358.136 328.608C356.73 326.341 354.713 324.573 352.084 323.304C349.454 322.035 346.258 321.4 342.496 321.4H332.432V329.696ZM379.156 342.276L392.96 364.58L406.764 342.276L409.824 369H419.956L412.884 319.02L392.96 349.756L373.036 319.02L365.964 369H376.096L379.156 342.276Z" fill="#303030"/>
<g filter="url(#filter2_bdi_1_2087)">
<path d="M463.653 167.93C463.292 131.135 492.829 101.014 529.624 100.653C566.42 100.292 596.541 129.829 596.901 166.624C597.262 203.42 567.726 233.541 530.93 233.901C494.135 234.262 464.014 204.726 463.653 167.93Z" fill="url(#paint2_linear_1_2087)" fill-opacity="0.93" shape-rendering="crispEdges"/>
</g>
<circle cx="516.609" cy="182.609" r="16.5" fill="#E0D9FF"/>
<path d="M514.109 170.109V183.538C514.109 183.955 514.278 184.355 514.578 184.649C514.878 184.944 515.285 185.109 515.709 185.109H544.509C544.934 185.109 545.341 184.944 545.641 184.649C545.941 184.355 546.109 183.955 546.109 183.538V170.109" stroke="#6B49F1" stroke-width="3" stroke-linecap="round" stroke-linejoin="round"/>
<path d="M514.693 149.109H545.526C545.888 149.112 546.239 149.235 546.527 149.458C546.816 149.682 547.028 149.995 547.13 150.352L550.109 161.109H510.109L513.089 150.352C513.191 149.995 513.402 149.682 513.691 149.458C513.98 149.235 514.331 149.112 514.693 149.109V149.109Z" stroke="#6B49F1" stroke-width="3" stroke-linecap="round" stroke-linejoin="round"/>
<path d="M524.109 161.109V164.442C524.109 166.211 523.372 167.906 522.059 169.157C520.746 170.407 518.966 171.109 517.109 171.109C515.253 171.109 513.472 170.407 512.16 169.157C510.847 167.906 510.109 166.211 510.109 164.442V161.109" stroke="#6B49F1" stroke-width="3" stroke-linecap="round" stroke-linejoin="round"/>
<path d="M536.109 161.109V164.442C536.109 166.211 535.477 167.906 534.352 169.157C533.227 170.407 531.701 171.109 530.109 171.109C528.518 171.109 526.992 170.407 525.867 169.157C524.742 167.906 524.109 166.211 524.109 164.442V161.109" stroke="#6B49F1" stroke-width="3" stroke-linecap="round" stroke-linejoin="round"/>
<path d="M550.109 161.109V164.442C550.109 166.211 549.372 167.906 548.059 169.157C546.746 170.407 544.966 171.109 543.109 171.109C541.253 171.109 539.472 170.407 538.16 169.157C536.847 167.906 536.109 166.211 536.109 164.442V161.109" stroke="#6B49F1" stroke-width="3" stroke-linecap="round" stroke-linejoin="round"/>
<g filter="url(#filter3_bdi_1_2087)">
<rect x="532" y="272.306" width="133.255" height="133.255" rx="66.6274" transform="rotate(-0.561514 532 272.306)" fill="url(#paint3_linear_1_2087)" fill-opacity="0.93" shape-rendering="crispEdges"/>
</g>
<circle cx="611.5" cy="316.5" r="16.5" fill="#F9DCEF"/>
<path d="M586 320.231L586 355.769C586 357.554 587.455 359 589.25 359L608.75 359C610.545 359 612 357.554 612 355.769L612 320.231C612 318.446 610.545 317 608.75 317L589.25 317C587.455 317 586 318.446 586 320.231Z" stroke="#FF65CB" stroke-width="3" stroke-linecap="round" stroke-linejoin="round"/>
<path d="M599 349C597.895 349 597 349.895 597 351C597 352.105 597.895 353 599 353C600.105 353 601 352.105 601 351C601 349.895 600.105 349 599 349Z" fill="#FF65CB"/>
<g filter="url(#filter4_bdi_1_2087)">
<rect x="463" y="438.306" width="133.255" height="133.255" rx="66.6274" transform="rotate(-0.561514 463 438.306)" fill="url(#paint4_linear_1_2087)" fill-opacity="0.93" shape-rendering="crispEdges"/>
</g>
<circle cx="547.5" cy="517.5" r="16.5" fill="#C8E7CB"/>
<path d="M511 490H549V516.444C549 516.857 548.833 517.253 548.536 517.544C548.239 517.836 547.837 518 547.417 518H512.583C512.163 518 511.761 517.836 511.464 517.544C511.167 517.253 511 516.857 511 516.444V490Z" stroke="#54CC60" stroke-width="3" stroke-linecap="round" stroke-linejoin="round"/>
<path d="M549 490L530 507L511 490" stroke="#54CC60" stroke-width="3" stroke-linecap="round" stroke-linejoin="round"/>
<g filter="url(#filter5_bdi_1_2087)">
<rect x="290" y="519.306" width="133.255" height="133.255" rx="66.6274" transform="rotate(-0.561514 290 519.306)" fill="url(#paint5_linear_1_2087)" fill-opacity="0.93" shape-rendering="crispEdges"/>
</g>
<circle cx="339.5" cy="577.5" r="16.5" fill="#F0E4D1"/>
<path d="M335.241 591.167C333.251 587.814 332.554 583.851 333.28 580.021C334.006 576.191 336.105 572.757 339.183 570.365C342.262 567.974 346.108 566.788 349.998 567.031C353.889 567.274 357.557 568.93 360.314 571.686C363.07 574.443 364.726 578.111 364.969 582.002C365.212 585.892 364.026 589.738 361.635 592.817C359.243 595.895 355.809 597.994 351.979 598.72C348.149 599.446 344.186 598.749 340.833 596.759L335.308 598.334C335.08 598.398 334.839 598.401 334.611 598.341C334.382 598.281 334.173 598.161 334.006 597.994C333.839 597.827 333.719 597.618 333.659 597.389C333.599 597.161 333.602 596.92 333.666 596.692L335.241 591.167Z" stroke="#FFB545" stroke-width="3" stroke-linecap="round" stroke-linejoin="round"/>
<path d="M348 599.303C348.781 601.538 350.046 603.57 351.705 605.254C353.364 606.938 355.375 608.231 357.592 609.039C359.809 609.848 362.178 610.152 364.526 609.929C366.875 609.707 369.145 608.964 371.173 607.753V607.753L376.689 609.332C376.916 609.396 377.157 609.399 377.385 609.339C377.614 609.279 377.822 609.159 377.989 608.991C378.156 608.824 378.275 608.614 378.335 608.385C378.395 608.156 378.392 607.915 378.329 607.687L376.756 602.15C378.16 599.784 378.932 597.094 378.996 594.34C379.06 591.587 378.414 588.864 377.122 586.434C375.829 584.005 373.933 581.952 371.618 580.474C369.303 578.997 366.646 578.144 363.906 578" stroke="#FFB545" stroke-width="3" stroke-linecap="round" stroke-linejoin="round"/>
<g filter="url(#filter6_bdi_1_2087)">
<rect x="120" y="438.306" width="133.255" height="133.255" rx="66.6274" transform="rotate(-0.561514 120 438.306)" fill="url(#paint6_linear_1_2087)" fill-opacity="0.93" shape-rendering="crispEdges"/>
</g>
<circle cx="171.5" cy="487.5" r="16.5" fill="#FFDEDE"/>
<path d="M170 526C169.997 525.348 170.127 524.703 170.383 524.1C170.638 523.497 171.013 522.95 171.488 522.489C171.962 522.028 172.525 521.663 173.145 521.415C173.765 521.167 174.43 521.041 175.1 521.043H204V488H175.1C174.43 487.997 173.765 488.124 173.145 488.372C172.525 488.62 171.962 488.985 171.488 489.446C171.013 489.906 170.638 490.454 170.383 491.057C170.127 491.659 169.997 492.305 170 492.957V526Z" stroke="#FF5F5F" stroke-width="3" stroke-linecap="round" stroke-linejoin="round"/>
<path d="M170 526V528H200" stroke="#FF5F5F" stroke-width="3" stroke-linecap="round" stroke-linejoin="round"/>
<g filter="url(#filter7_bdi_1_2087)">
<rect x="41" y="271.306" width="133.255" height="133.255" rx="66.6274" transform="rotate(-0.561514 41 271.306)" fill="url(#paint7_linear_1_2087)" fill-opacity="0.93" shape-rendering="crispEdges"/>
</g>
<path d="M105 338.875C109.142 338.875 112.5 335.517 112.5 331.375C112.5 327.233 109.142 323.875 105 323.875C100.858 323.875 97.5 327.233 97.5 331.375C97.5 335.517 100.858 338.875 105 338.875Z" stroke="#1ACCB7" stroke-width="3" stroke-linecap="round" stroke-linejoin="round"/>
<circle cx="116.5" cy="355.5" r="16.5" fill="#C6ECE6"/>
<path d="M123.75 331.375C123.75 348.25 105 361.375 105 361.375C105 361.375 86.25 348.25 86.25 331.375C86.25 326.402 88.2254 321.633 91.7417 318.117C95.2581 314.6 100.027 312.625 105 312.625C109.973 312.625 114.742 314.6 118.258 318.117C121.775 321.633 123.75 326.402 123.75 331.375V331.375Z" stroke="#1ACCB7" stroke-width="3" stroke-linecap="round" stroke-linejoin="round"/>
<g filter="url(#filter8_bdi_1_2087)">
<rect x="120" y="101.306" width="133.255" height="133.255" rx="66.6274" transform="rotate(-0.561514 120 101.306)" fill="url(#paint8_linear_1_2087)" fill-opacity="0.93" shape-rendering="crispEdges"/>
</g>
<circle cx="203.5" cy="180.5" r="16.5" fill="#D1EAF2"/>
<path d="M195.812 178.812H171.723L165.838 146.455C165.769 146.067 165.567 145.716 165.267 145.462C164.966 145.207 164.587 145.066 164.193 145.062H160.375" stroke="#37C4F0" stroke-width="3" stroke-linecap="round" stroke-linejoin="round"/>
<path d="M173.875 187.25C176.205 187.25 178.094 185.361 178.094 183.031C178.094 180.701 176.205 178.812 173.875 178.812C171.545 178.812 169.656 180.701 169.656 183.031C169.656 185.361 171.545 187.25 173.875 187.25Z" stroke="#37C4F0" stroke-width="3" stroke-linecap="round" stroke-linejoin="round"/>
<path d="M195.812 187.25C198.142 187.25 200.031 185.361 200.031 183.031C200.031 180.701 198.142 178.812 195.812 178.812C193.483 178.812 191.594 180.701 191.594 183.031C191.594 185.361 193.483 187.25 195.812 187.25Z" stroke="#37C4F0" stroke-width="3" stroke-linecap="round" stroke-linejoin="round"/>
<path d="M170.184 170.375H196.677C197.466 170.377 198.231 170.102 198.836 169.596C199.442 169.091 199.85 168.388 199.989 167.612L202.562 153.5H167.125" stroke="#37C4F0" stroke-width="3" stroke-linecap="round" stroke-linejoin="round"/>
<g filter="url(#filter9_bdi_1_2087)">
<rect x="231" y="235.293" width="234.007" height="234.007" rx="117.003" transform="rotate(-0.561514 231 235.293)" fill="url(#paint9_linear_1_2087)" fill-opacity="0.93" shape-rendering="crispEdges"/>
</g>
<g filter="url(#filter10_bdi_1_2087)">
<rect x="249.977" y="253.902" width="196.42" height="196.42" rx="98.2101" transform="rotate(-0.561514 249.977 253.902)" fill="url(#paint10_linear_1_2087)" fill-opacity="0.93" shape-rendering="crispEdges"/>
</g>
<path d="M286.988 345.2C286.988 342.027 287.691 339.284 289.096 336.972C290.547 334.66 292.428 332.892 294.74 331.668C297.052 330.399 299.568 329.764 302.288 329.764C304.555 329.764 306.572 330.059 308.34 330.648C310.108 331.237 311.695 332.031 313.1 333.028C314.551 334.025 315.797 335.113 316.84 336.292V325.344C314.891 323.803 312.76 322.601 310.448 321.74C308.181 320.879 305.303 320.448 301.812 320.448C298.185 320.448 294.808 321.037 291.68 322.216C288.597 323.395 285.9 325.095 283.588 327.316C281.321 329.537 279.553 332.167 278.284 335.204C277.06 338.196 276.448 341.528 276.448 345.2C276.448 348.872 277.06 352.227 278.284 355.264C279.553 358.256 281.321 360.863 283.588 363.084C285.9 365.305 288.597 367.005 291.68 368.184C294.808 369.363 298.185 369.952 301.812 369.952C305.303 369.952 308.181 369.521 310.448 368.66C312.76 367.799 314.891 366.597 316.84 365.056V354.108C315.797 355.287 314.551 356.375 313.1 357.372C311.695 358.369 310.108 359.163 308.34 359.752C306.572 360.341 304.555 360.636 302.288 360.636C299.568 360.636 297.052 360.024 294.74 358.8C292.428 357.531 290.547 355.74 289.096 353.428C287.691 351.071 286.988 348.328 286.988 345.2ZM337.328 346.832L351.608 369H363.1L347.596 346.832H337.328ZM326.516 321.4V369H336.24V321.4H326.516ZM332.432 329.696H341.884C343.606 329.696 345.08 329.991 346.304 330.58C347.573 331.124 348.548 331.94 349.228 333.028C349.908 334.071 350.248 335.34 350.248 336.836C350.248 338.332 349.908 339.624 349.228 340.712C348.548 341.755 347.573 342.571 346.304 343.16C345.08 343.704 343.606 343.976 341.884 343.976H332.432V351.728H342.496C346.258 351.728 349.454 351.093 352.084 349.824C354.713 348.555 356.73 346.787 358.136 344.52C359.541 342.208 360.244 339.556 360.244 336.564C360.244 333.527 359.541 330.875 358.136 328.608C356.73 326.341 354.713 324.573 352.084 323.304C349.454 322.035 346.258 321.4 342.496 321.4H332.432V329.696ZM379.156 342.276L392.96 364.58L406.764 342.276L409.824 369H419.956L412.884 319.02L392.96 349.756L373.036 319.02L365.964 369H376.096L379.156 342.276Z" fill="#303030"/>
<defs>
<filter id="filter0_bdi_1_2087" x="204.141" y="212.702" width="290.007" height="297.446" filterUnits="userSpaceOnUse" color-interpolation-filters="sRGB">
<feFlood flood-opacity="0" result="BackgroundImageFix"/>
<feGaussianBlur in="BackgroundImageFix" stdDeviation="10.7192"/>
<feComposite in2="SourceAlpha" operator="in" result="effect1_backgroundBlur_1_2087"/>
<feColorMatrix in="SourceAlpha" type="matrix" values="0 0 0 0 0 0 0 0 0 0 0 0 0 0 0 0 0 0 127 0" result="hardAlpha"/>
<feOffset dy="14"/>
<feGaussianBlur stdDeviation="14"/>
<feComposite in2="hardAlpha" operator="out"/>
<feColorMatrix type="matrix" values="0 0 0 0 0.804167 0 0 0 0 0.804167 0 0 0 0 0.804167 0 0 0 0.25 0"/>
<feBlend mode="normal" in2="effect1_backgroundBlur_1_2087" result="effect2_dropShadow_1_2087"/>
<feBlend mode="normal" in="SourceGraphic" in2="effect2_dropShadow_1_2087" result="shape"/>
<feColorMatrix in="SourceAlpha" type="matrix" values="0 0 0 0 0 0 0 0 0 0 0 0 0 0 0 0 0 0 127 0" result="hardAlpha"/>
<feOffset dx="-2.57262" dy="2.57262"/>
<feComposite in2="hardAlpha" operator="arithmetic" k2="-1" k3="1"/>
<feColorMatrix type="matrix" values="0 0 0 0 1 0 0 0 0 1 0 0 0 0 1 0 0 0 1 0"/>
<feBlend mode="normal" in2="shape" result="effect3_innerShadow_1_2087"/>
</filter>
<filter id="filter1_bdi_1_2087" x="222.934" y="231.496" width="252.42" height="259.859" filterUnits="userSpaceOnUse" color-interpolation-filters="sRGB">
<feFlood flood-opacity="0" result="BackgroundImageFix"/>
<feGaussianBlur in="BackgroundImageFix" stdDeviation="10.7192"/>
<feComposite in2="SourceAlpha" operator="in" result="effect1_backgroundBlur_1_2087"/>
<feColorMatrix in="SourceAlpha" type="matrix" values="0 0 0 0 0 0 0 0 0 0 0 0 0 0 0 0 0 0 127 0" result="hardAlpha"/>
<feOffset dy="14"/>
<feGaussianBlur stdDeviation="14"/>
<feComposite in2="hardAlpha" operator="out"/>
<feColorMatrix type="matrix" values="0 0 0 0 0.804167 0 0 0 0 0.804167 0 0 0 0 0.804167 0 0 0 0.25 0"/>
<feBlend mode="normal" in2="effect1_backgroundBlur_1_2087" result="effect2_dropShadow_1_2087"/>
<feBlend mode="normal" in="SourceGraphic" in2="effect2_dropShadow_1_2087" result="shape"/>
<feColorMatrix in="SourceAlpha" type="matrix" values="0 0 0 0 0 0 0 0 0 0 0 0 0 0 0 0 0 0 127 0" result="hardAlpha"/>
<feOffset dx="-2.57262" dy="2.57262"/>
<feComposite in2="hardAlpha" operator="arithmetic" k2="-1" k3="1"/>
<feColorMatrix type="matrix" values="0 0 0 0 1 0 0 0 0 1 0 0 0 0 1 0 0 0 1 0"/>
<feBlend mode="normal" in2="shape" result="effect3_innerShadow_1_2087"/>
</filter>
<filter id="filter2_bdi_1_2087" x="435.65" y="79.2112" width="189.255" height="196.693" filterUnits="userSpaceOnUse" color-interpolation-filters="sRGB">
<feFlood flood-opacity="0" result="BackgroundImageFix"/>
<feGaussianBlur in="BackgroundImageFix" stdDeviation="10.7192"/>
<feComposite in2="SourceAlpha" operator="in" result="effect1_backgroundBlur_1_2087"/>
<feColorMatrix in="SourceAlpha" type="matrix" values="0 0 0 0 0 0 0 0 0 0 0 0 0 0 0 0 0 0 127 0" result="hardAlpha"/>
<feOffset dy="14"/>
<feGaussianBlur stdDeviation="14"/>
<feComposite in2="hardAlpha" operator="out"/>
<feColorMatrix type="matrix" values="0 0 0 0 0.804167 0 0 0 0 0.804167 0 0 0 0 0.804167 0 0 0 0.25 0"/>
<feBlend mode="normal" in2="effect1_backgroundBlur_1_2087" result="effect2_dropShadow_1_2087"/>
<feBlend mode="normal" in="SourceGraphic" in2="effect2_dropShadow_1_2087" result="shape"/>
<feColorMatrix in="SourceAlpha" type="matrix" values="0 0 0 0 0 0 0 0 0 0 0 0 0 0 0 0 0 0 127 0" result="hardAlpha"/>
<feOffset dx="-2.57262" dy="2.57262"/>
<feComposite in2="hardAlpha" operator="arithmetic" k2="-1" k3="1"/>
<feColorMatrix type="matrix" values="0 0 0 0 1 0 0 0 0 1 0 0 0 0 1 0 0 0 1 0"/>
<feBlend mode="normal" in2="shape" result="effect3_innerShadow_1_2087"/>
</filter>
<filter id="filter3_bdi_1_2087" x="504.65" y="250.211" width="189.255" height="196.693" filterUnits="userSpaceOnUse" color-interpolation-filters="sRGB">
<feFlood flood-opacity="0" result="BackgroundImageFix"/>
<feGaussianBlur in="BackgroundImageFix" stdDeviation="10.7192"/>
<feComposite in2="SourceAlpha" operator="in" result="effect1_backgroundBlur_1_2087"/>
<feColorMatrix in="SourceAlpha" type="matrix" values="0 0 0 0 0 0 0 0 0 0 0 0 0 0 0 0 0 0 127 0" result="hardAlpha"/>
<feOffset dy="14"/>
<feGaussianBlur stdDeviation="14"/>
<feComposite in2="hardAlpha" operator="out"/>
<feColorMatrix type="matrix" values="0 0 0 0 0.804167 0 0 0 0 0.804167 0 0 0 0 0.804167 0 0 0 0.25 0"/>
<feBlend mode="normal" in2="effect1_backgroundBlur_1_2087" result="effect2_dropShadow_1_2087"/>
<feBlend mode="normal" in="SourceGraphic" in2="effect2_dropShadow_1_2087" result="shape"/>
<feColorMatrix in="SourceAlpha" type="matrix" values="0 0 0 0 0 0 0 0 0 0 0 0 0 0 0 0 0 0 127 0" result="hardAlpha"/>
<feOffset dx="-2.57262" dy="2.57262"/>
<feComposite in2="hardAlpha" operator="arithmetic" k2="-1" k3="1"/>
<feColorMatrix type="matrix" values="0 0 0 0 1 0 0 0 0 1 0 0 0 0 1 0 0 0 1 0"/>
<feBlend mode="normal" in2="shape" result="effect3_innerShadow_1_2087"/>
</filter>
<filter id="filter4_bdi_1_2087" x="435.65" y="416.211" width="189.255" height="196.693" filterUnits="userSpaceOnUse" color-interpolation-filters="sRGB">
<feFlood flood-opacity="0" result="BackgroundImageFix"/>
<feGaussianBlur in="BackgroundImageFix" stdDeviation="10.7192"/>
<feComposite in2="SourceAlpha" operator="in" result="effect1_backgroundBlur_1_2087"/>
<feColorMatrix in="SourceAlpha" type="matrix" values="0 0 0 0 0 0 0 0 0 0 0 0 0 0 0 0 0 0 127 0" result="hardAlpha"/>
<feOffset dy="14"/>
<feGaussianBlur stdDeviation="14"/>
<feComposite in2="hardAlpha" operator="out"/>
<feColorMatrix type="matrix" values="0 0 0 0 0.804167 0 0 0 0 0.804167 0 0 0 0 0.804167 0 0 0 0.25 0"/>
<feBlend mode="normal" in2="effect1_backgroundBlur_1_2087" result="effect2_dropShadow_1_2087"/>
<feBlend mode="normal" in="SourceGraphic" in2="effect2_dropShadow_1_2087" result="shape"/>
<feColorMatrix in="SourceAlpha" type="matrix" values="0 0 0 0 0 0 0 0 0 0 0 0 0 0 0 0 0 0 127 0" result="hardAlpha"/>
<feOffset dx="-2.57262" dy="2.57262"/>
<feComposite in2="hardAlpha" operator="arithmetic" k2="-1" k3="1"/>
<feColorMatrix type="matrix" values="0 0 0 0 1 0 0 0 0 1 0 0 0 0 1 0 0 0 1 0"/>
<feBlend mode="normal" in2="shape" result="effect3_innerShadow_1_2087"/>
</filter>
<filter id="filter5_bdi_1_2087" x="262.65" y="497.211" width="189.255" height="196.693" filterUnits="userSpaceOnUse" color-interpolation-filters="sRGB">
<feFlood flood-opacity="0" result="BackgroundImageFix"/>
<feGaussianBlur in="BackgroundImageFix" stdDeviation="10.7192"/>
<feComposite in2="SourceAlpha" operator="in" result="effect1_backgroundBlur_1_2087"/>
<feColorMatrix in="SourceAlpha" type="matrix" values="0 0 0 0 0 0 0 0 0 0 0 0 0 0 0 0 0 0 127 0" result="hardAlpha"/>
<feOffset dy="14"/>
<feGaussianBlur stdDeviation="14"/>
<feComposite in2="hardAlpha" operator="out"/>
<feColorMatrix type="matrix" values="0 0 0 0 0.804167 0 0 0 0 0.804167 0 0 0 0 0.804167 0 0 0 0.25 0"/>
<feBlend mode="normal" in2="effect1_backgroundBlur_1_2087" result="effect2_dropShadow_1_2087"/>
<feBlend mode="normal" in="SourceGraphic" in2="effect2_dropShadow_1_2087" result="shape"/>
<feColorMatrix in="SourceAlpha" type="matrix" values="0 0 0 0 0 0 0 0 0 0 0 0 0 0 0 0 0 0 127 0" result="hardAlpha"/>
<feOffset dx="-2.57262" dy="2.57262"/>
<feComposite in2="hardAlpha" operator="arithmetic" k2="-1" k3="1"/>
<feColorMatrix type="matrix" values="0 0 0 0 1 0 0 0 0 1 0 0 0 0 1 0 0 0 1 0"/>
<feBlend mode="normal" in2="shape" result="effect3_innerShadow_1_2087"/>
</filter>
<filter id="filter6_bdi_1_2087" x="92.6499" y="416.211" width="189.255" height="196.693" filterUnits="userSpaceOnUse" color-interpolation-filters="sRGB">
<feFlood flood-opacity="0" result="BackgroundImageFix"/>
<feGaussianBlur in="BackgroundImageFix" stdDeviation="10.7192"/>
<feComposite in2="SourceAlpha" operator="in" result="effect1_backgroundBlur_1_2087"/>
<feColorMatrix in="SourceAlpha" type="matrix" values="0 0 0 0 0 0 0 0 0 0 0 0 0 0 0 0 0 0 127 0" result="hardAlpha"/>
<feOffset dy="14"/>
<feGaussianBlur stdDeviation="14"/>
<feComposite in2="hardAlpha" operator="out"/>
<feColorMatrix type="matrix" values="0 0 0 0 0.804167 0 0 0 0 0.804167 0 0 0 0 0.804167 0 0 0 0.25 0"/>
<feBlend mode="normal" in2="effect1_backgroundBlur_1_2087" result="effect2_dropShadow_1_2087"/>
<feBlend mode="normal" in="SourceGraphic" in2="effect2_dropShadow_1_2087" result="shape"/>
<feColorMatrix in="SourceAlpha" type="matrix" values="0 0 0 0 0 0 0 0 0 0 0 0 0 0 0 0 0 0 127 0" result="hardAlpha"/>
<feOffset dx="-2.57262" dy="2.57262"/>
<feComposite in2="hardAlpha" operator="arithmetic" k2="-1" k3="1"/>
<feColorMatrix type="matrix" values="0 0 0 0 1 0 0 0 0 1 0 0 0 0 1 0 0 0 1 0"/>
<feBlend mode="normal" in2="shape" result="effect3_innerShadow_1_2087"/>
</filter>
<filter id="filter7_bdi_1_2087" x="13.6499" y="249.211" width="189.255" height="196.693" filterUnits="userSpaceOnUse" color-interpolation-filters="sRGB">
<feFlood flood-opacity="0" result="BackgroundImageFix"/>
<feGaussianBlur in="BackgroundImageFix" stdDeviation="10.7192"/>
<feComposite in2="SourceAlpha" operator="in" result="effect1_backgroundBlur_1_2087"/>
<feColorMatrix in="SourceAlpha" type="matrix" values="0 0 0 0 0 0 0 0 0 0 0 0 0 0 0 0 0 0 127 0" result="hardAlpha"/>
<feOffset dy="14"/>
<feGaussianBlur stdDeviation="14"/>
<feComposite in2="hardAlpha" operator="out"/>
<feColorMatrix type="matrix" values="0 0 0 0 0.804167 0 0 0 0 0.804167 0 0 0 0 0.804167 0 0 0 0.25 0"/>
<feBlend mode="normal" in2="effect1_backgroundBlur_1_2087" result="effect2_dropShadow_1_2087"/>
<feBlend mode="normal" in="SourceGraphic" in2="effect2_dropShadow_1_2087" result="shape"/>
<feColorMatrix in="SourceAlpha" type="matrix" values="0 0 0 0 0 0 0 0 0 0 0 0 0 0 0 0 0 0 127 0" result="hardAlpha"/>
<feOffset dx="-2.57262" dy="2.57262"/>
<feComposite in2="hardAlpha" operator="arithmetic" k2="-1" k3="1"/>
<feColorMatrix type="matrix" values="0 0 0 0 1 0 0 0 0 1 0 0 0 0 1 0 0 0 1 0"/>
<feBlend mode="normal" in2="shape" result="effect3_innerShadow_1_2087"/>
</filter>
<filter id="filter8_bdi_1_2087" x="92.6499" y="79.2112" width="189.255" height="196.693" filterUnits="userSpaceOnUse" color-interpolation-filters="sRGB">
<feFlood flood-opacity="0" result="BackgroundImageFix"/>
<feGaussianBlur in="BackgroundImageFix" stdDeviation="10.7192"/>
<feComposite in2="SourceAlpha" operator="in" result="effect1_backgroundBlur_1_2087"/>
<feColorMatrix in="SourceAlpha" type="matrix" values="0 0 0 0 0 0 0 0 0 0 0 0 0 0 0 0 0 0 127 0" result="hardAlpha"/>
<feOffset dy="14"/>
<feGaussianBlur stdDeviation="14"/>
<feComposite in2="hardAlpha" operator="out"/>
<feColorMatrix type="matrix" values="0 0 0 0 0.804167 0 0 0 0 0.804167 0 0 0 0 0.804167 0 0 0 0.25 0"/>
<feBlend mode="normal" in2="effect1_backgroundBlur_1_2087" result="effect2_dropShadow_1_2087"/>
<feBlend mode="normal" in="SourceGraphic" in2="effect2_dropShadow_1_2087" result="shape"/>
<feColorMatrix in="SourceAlpha" type="matrix" values="0 0 0 0 0 0 0 0 0 0 0 0 0 0 0 0 0 0 127 0" result="hardAlpha"/>
<feOffset dx="-2.57262" dy="2.57262"/>
<feComposite in2="hardAlpha" operator="arithmetic" k2="-1" k3="1"/>
<feColorMatrix type="matrix" values="0 0 0 0 1 0 0 0 0 1 0 0 0 0 1 0 0 0 1 0"/>
<feBlend mode="normal" in2="shape" result="effect3_innerShadow_1_2087"/>
</filter>
<filter id="filter9_bdi_1_2087" x="204.141" y="212.702" width="290.007" height="297.446" filterUnits="userSpaceOnUse" color-interpolation-filters="sRGB">
<feFlood flood-opacity="0" result="BackgroundImageFix"/>
<feGaussianBlur in="BackgroundImageFix" stdDeviation="10.7192"/>
<feComposite in2="SourceAlpha" operator="in" result="effect1_backgroundBlur_1_2087"/>
<feColorMatrix in="SourceAlpha" type="matrix" values="0 0 0 0 0 0 0 0 0 0 0 0 0 0 0 0 0 0 127 0" result="hardAlpha"/>
<feOffset dy="14"/>
<feGaussianBlur stdDeviation="14"/>
<feComposite in2="hardAlpha" operator="out"/>
<feColorMatrix type="matrix" values="0 0 0 0 0.804167 0 0 0 0 0.804167 0 0 0 0 0.804167 0 0 0 0.25 0"/>
<feBlend mode="normal" in2="effect1_backgroundBlur_1_2087" result="effect2_dropShadow_1_2087"/>
<feBlend mode="normal" in="SourceGraphic" in2="effect2_dropShadow_1_2087" result="shape"/>
<feColorMatrix in="SourceAlpha" type="matrix" values="0 0 0 0 0 0 0 0 0 0 0 0 0 0 0 0 0 0 127 0" result="hardAlpha"/>
<feOffset dx="-2.57262" dy="2.57262"/>
<feComposite in2="hardAlpha" operator="arithmetic" k2="-1" k3="1"/>
<feColorMatrix type="matrix" values="0 0 0 0 1 0 0 0 0 1 0 0 0 0 1 0 0 0 1 0"/>
<feBlend mode="normal" in2="shape" result="effect3_innerShadow_1_2087"/>
</filter>
<filter id="filter10_bdi_1_2087" x="222.934" y="231.496" width="252.42" height="259.859" filterUnits="userSpaceOnUse" color-interpolation-filters="sRGB">
<feFlood flood-opacity="0" result="BackgroundImageFix"/>
<feGaussianBlur in="BackgroundImageFix" stdDeviation="10.7192"/>
<feComposite in2="SourceAlpha" operator="in" result="effect1_backgroundBlur_1_2087"/>
<feColorMatrix in="SourceAlpha" type="matrix" values="0 0 0 0 0 0 0 0 0 0 0 0 0 0 0 0 0 0 127 0" result="hardAlpha"/>
<feOffset dy="14"/>
<feGaussianBlur stdDeviation="14"/>
<feComposite in2="hardAlpha" operator="out"/>
<feColorMatrix type="matrix" values="0 0 0 0 0.804167 0 0 0 0 0.804167 0 0 0 0 0.804167 0 0 0 0.25 0"/>
<feBlend mode="normal" in2="effect1_backgroundBlur_1_2087" result="effect2_dropShadow_1_2087"/>
<feBlend mode="normal" in="SourceGraphic" in2="effect2_dropShadow_1_2087" result="shape"/>
<feColorMatrix in="SourceAlpha" type="matrix" values="0 0 0 0 0 0 0 0 0 0 0 0 0 0 0 0 0 0 127 0" result="hardAlpha"/>
<feOffset dx="-2.57262" dy="2.57262"/>
<feComposite in2="hardAlpha" operator="arithmetic" k2="-1" k3="1"/>
<feColorMatrix type="matrix" values="0 0 0 0 1 0 0 0 0 1 0 0 0 0 1 0 0 0 1 0"/>
<feBlend mode="normal" in2="shape" result="effect3_innerShadow_1_2087"/>
</filter>
<linearGradient id="paint0_linear_1_2087" x1="444.359" y1="320.627" x2="241.471" y2="297.567" gradientUnits="userSpaceOnUse">
<stop stop-color="#F4F4F4"/>
<stop offset="0.421875" stop-color="#F4F4F4"/>
<stop offset="1" stop-color="white"/>
</linearGradient>
<linearGradient id="paint1_linear_1_2087" x1="429.066" y1="325.529" x2="258.766" y2="306.173" gradientUnits="userSpaceOnUse">
<stop stop-color="#F4F4F4"/>
<stop offset="0.421875" stop-color="#F4F4F4"/>
<stop offset="1" stop-color="white"/>
</linearGradient>
<linearGradient id="paint2_linear_1_2087" x1="584.967" y1="148.706" x2="469.31" y2="136.708" gradientUnits="userSpaceOnUse">
<stop stop-color="#F4F4F4"/>
<stop offset="0.421875" stop-color="#F4F4F4"/>
<stop offset="1" stop-color="white"/>
</linearGradient>
<linearGradient id="paint3_linear_1_2087" x1="653.497" y1="320.899" x2="537.963" y2="307.768" gradientUnits="userSpaceOnUse">
<stop stop-color="#F4F4F4"/>
<stop offset="0.421875" stop-color="#F4F4F4"/>
<stop offset="1" stop-color="white"/>
</linearGradient>
<linearGradient id="paint4_linear_1_2087" x1="584.497" y1="486.899" x2="468.963" y2="473.768" gradientUnits="userSpaceOnUse">
<stop stop-color="#F4F4F4"/>
<stop offset="0.421875" stop-color="#F4F4F4"/>
<stop offset="1" stop-color="white"/>
</linearGradient>
<linearGradient id="paint5_linear_1_2087" x1="411.497" y1="567.899" x2="295.963" y2="554.768" gradientUnits="userSpaceOnUse">
<stop stop-color="#F4F4F4"/>
<stop offset="0.421875" stop-color="#F4F4F4"/>
<stop offset="1" stop-color="white"/>
</linearGradient>
<linearGradient id="paint6_linear_1_2087" x1="241.497" y1="486.899" x2="125.963" y2="473.768" gradientUnits="userSpaceOnUse">
<stop stop-color="#F4F4F4"/>
<stop offset="0.421875" stop-color="#F4F4F4"/>
<stop offset="1" stop-color="white"/>
</linearGradient>
<linearGradient id="paint7_linear_1_2087" x1="162.497" y1="319.899" x2="46.9626" y2="306.768" gradientUnits="userSpaceOnUse">
<stop stop-color="#F4F4F4"/>
<stop offset="0.421875" stop-color="#F4F4F4"/>
<stop offset="1" stop-color="white"/>
</linearGradient>
<linearGradient id="paint8_linear_1_2087" x1="241.497" y1="149.899" x2="125.963" y2="136.768" gradientUnits="userSpaceOnUse">
<stop stop-color="#F4F4F4"/>
<stop offset="0.421875" stop-color="#F4F4F4"/>
<stop offset="1" stop-color="white"/>
</linearGradient>
<linearGradient id="paint9_linear_1_2087" x1="444.359" y1="320.627" x2="241.471" y2="297.567" gradientUnits="userSpaceOnUse">
<stop stop-color="#F4F4F4"/>
<stop offset="0.421875" stop-color="#F4F4F4"/>
<stop offset="1" stop-color="white"/>
</linearGradient>
<linearGradient id="paint10_linear_1_2087" x1="429.066" y1="325.529" x2="258.766" y2="306.173" gradientUnits="userSpaceOnUse">
<stop stop-color="#F4F4F4"/>
<stop offset="0.421875" stop-color="#F4F4F4"/>
<stop offset="1" stop-color="white"/>
</linearGradient>
</defs>
</svg>
